<svg width="29" height="29" viewBox="0 0 29 29" fill="none" xmlns="http://www.w3.org/2000/svg">
<path d="M28.1287 16.1922L26.0594 14.9501L26.4809 14.5278C29.1061 11.9856 29.7399 8.16235 28.0971 4.78635C26.466 1.43685 23.0874 -0.414225 19.5148 0.083589C15.4111 0.525839 12.854 3.74342 12.2085 6.55195C10.8442 11.6563 12.9028 17.4161 11.8235 21.1264C11.4401 22.6514 10.3566 23.7009 8.8963 23.8677C7.15233 24.1116 5.99239 23.0413 5.47469 21.9677C4.95196 20.8924 4.84411 19.311 6.11354 18.0889L6.54498 17.6566L7.78954 19.7283C7.97538 20.0369 8.34711 20.1938 8.68559 20.1241C9.03903 20.0527 9.30785 19.7673 9.35933 19.4114L10.5607 11.0007C10.6422 10.4359 10.15 9.95662 9.59994 10.0391L1.18841 11.2405C0.831636 11.2919 0.546223 11.5607 0.474856 11.9134C0.403489 12.266 0.562819 12.6252 0.871454 12.8103L2.94071 14.0524L2.51924 14.4747C-0.105937 17.0169 -0.739802 20.8401 0.903003 24.2161C2.53567 27.5708 5.92187 29.4125 9.48536 28.9188C13.5957 28.4758 16.1064 25.2466 16.7369 22.4671C18.1114 17.3601 16.0464 11.5765 17.1269 7.86261C17.5102 6.33762 18.6435 5.30155 20.1038 5.1348C21.8412 4.89085 23.0061 5.96119 23.5255 7.03481C24.0482 8.11007 24.1561 9.69148 22.8866 10.9136L22.4552 11.3459L21.2106 9.27415C21.0248 8.96552 20.6548 8.81117 20.3146 8.8784C19.9612 8.94977 19.6923 9.23518 19.6409 9.59111L18.4395 18.0017C18.3573 18.5717 18.8569 19.0459 19.4003 18.9634L27.8118 17.762C28.1686 17.7105 28.454 17.4417 28.5253 17.0891C28.5967 16.7364 28.4373 16.3772 28.1287 16.1922Z" fill="url(#paint0_linear_1130_3)"/>
<path d="M5.0017 15.9999C-1.92609 23.7939 6.89529 28.5881 11.9813 24.862C13.6553 23.6356 14.2398 21.4639 14.4073 19.3955C14.7097 15.6609 14.3125 12.6982 14.7602 8.7293C14.8904 7.57521 15.1317 6.40316 15.7713 5.43373C19.8332 -0.722863 31.4488 4.62209 24.002 12.9999" stroke="#14E0B8"/>
<defs>
<linearGradient id="paint0_linear_1130_3" x1="14.5001" y1="28.9981" x2="14.5001" y2="0.00344216" gradientUnits="userSpaceOnUse">
<stop stop-color="#4E7DF1"/>
<stop offset="1" stop-color="#3862CB"/>
</linearGradient>
</defs>
</svg>
