<svg width="29" height="38" viewBox="0 0 29 38" fill="none" xmlns="http://www.w3.org/2000/svg">
<path d="M24.0779 28.5568V27.6354C24.0779 25.3535 22.7088 23.3314 20.5901 22.484C19.3071 21.9708 18.4782 20.7465 18.4782 19.3647V15.2541C18.4782 14.9163 18.7198 14.7799 18.8237 14.7368C18.9279 14.6937 19.1953 14.6194 19.434 14.8581L22.6368 18.0608C23.3891 18.8131 24.5778 18.9309 25.4629 18.3407L27.347 17.0846C28.185 16.526 28.548 15.4683 28.2294 14.5127L25.697 6.91523C25.4646 6.21811 25.5891 5.451 26.03 4.86306L27.6614 2.68781C28.0458 2.17547 28.1067 1.50119 27.8203 0.928376C27.534 0.355784 26.9584 0 26.3182 0H18.2655C18.2653 0 18.2656 0 18.2653 0C14.4482 0 10.9106 1.72651 8.56042 4.73651C6.20611 7.75178 5.38837 11.6114 6.31698 15.3256L6.37039 15.5391C6.90569 17.6803 6.57511 19.9019 5.43955 21.7947L4.07969 24.0611C3.9752 24.2351 3.9201 24.4342 3.9201 24.6373V28.5568H24.0775H24.0779Z" fill="url(#paint0_linear_1_88)"/>
<path d="M24.0773 31.9164H3.91957C1.75485 31.9164 0 33.6713 0 35.836C0 36.7637 0.752109 37.5158 1.67981 37.5158H26.3171C27.2448 37.5158 27.9969 36.7637 27.9969 35.836C27.9969 33.6713 26.2421 31.9164 24.0773 31.9164Z" fill="url(#paint1_linear_1_88)"/>
<path d="M19.5 8C20.3284 8 21 7.32843 21 6.5C21 5.67157 20.3284 5 19.5 5C18.6716 5 18 5.67157 18 6.5C18 7.32843 18.6716 8 19.5 8Z" fill="#14E0B8"/>
<defs>
<linearGradient id="paint0_linear_1_88" x1="16.132" y1="0" x2="16.132" y2="28.5568" gradientUnits="userSpaceOnUse">
<stop stop-color="#4D7CEF"/>
<stop offset="1" stop-color="#3963CC"/>
</linearGradient>
<linearGradient id="paint1_linear_1_88" x1="13.9984" y1="31.9164" x2="13.9984" y2="37.5158" gradientUnits="userSpaceOnUse">
<stop stop-color="#4C7BEE"/>
<stop offset="1" stop-color="#3A64CD"/>
</linearGradient>
</defs>
</svg>
