<svg width="31" height="36" viewBox="0 0 31 36" fill="none" xmlns="http://www.w3.org/2000/svg">
<path d="M8.77762 15.2635C9.10559 17.3953 10.7529 20.1085 13.4586 21.0625C14.5692 21.4501 15.7842 21.4576 16.8948 21.0551C19.5558 20.0935 21.2553 17.3878 21.5907 15.2635C21.9485 15.2337 22.4181 14.7342 22.925 12.9379C23.6182 10.4856 22.8802 10.1203 22.2541 10.18C22.3734 9.84454 22.4628 9.50167 22.5225 9.1737C23.5809 2.81559 20.4503 2.59943 20.4503 2.59943C20.4503 2.59943 19.9285 1.60061 18.5645 0.847779C17.6477 0.30365 16.3731 -0.113764 14.696 0.0278586C14.1518 0.0502201 13.6375 0.162027 13.153 0.318558C12.5343 0.527265 11.9679 0.832871 11.4535 1.19065C10.8274 1.58571 10.2311 2.07766 9.70935 2.6367C8.88197 3.48643 8.14405 4.58214 7.82353 5.94619C7.55519 6.96737 7.61483 8.03326 7.83844 9.18115C7.89807 9.51657 7.98752 9.85199 8.10678 10.1874C7.48066 10.1278 6.74273 10.493 7.43593 12.9453C7.95025 14.7342 8.41984 15.2337 8.77762 15.2635Z" fill="url(#paint0_linear_1_109)"/>
<path d="M27.4782 23.6045C23.6693 22.6355 20.576 20.459 20.576 20.459L18.1609 28.0992L17.7062 29.5377L17.6988 29.5154L17.3037 30.7378L16.0291 27.1227C19.1597 22.7548 15.3956 22.7995 15.1869 22.8069C14.9781 22.7995 11.214 22.7548 14.3446 27.1227L13.07 30.7378L12.6749 29.5154L12.6675 29.5377L12.2128 28.0992L9.79029 20.459C9.79029 20.459 6.69695 22.6355 2.88805 23.6045C0.0481431 24.3275 -0.0860256 27.6072 0.0257817 29.2247C0.0257817 29.2247 0.189766 31.4236 0.35375 32.3926C0.35375 32.3926 5.89939 35.9927 15.1869 36.0002C24.4743 36.0002 30.02 32.3926 30.02 32.3926C30.1839 31.4236 30.3479 29.2247 30.3479 29.2247C30.4523 27.6072 30.3181 24.3275 27.4782 23.6045Z" fill="url(#paint1_linear_1_109)"/>
<path d="M14 26.9999L13 30.9999L17.5 31L16.5 26.9999C20.5 21.5 10 20.5 14 26.9999Z" fill="#14E0B8"/>
<defs>
<linearGradient id="paint0_linear_1_109" x1="15.1805" y1="0" x2="15.1805" y2="21.3551" gradientUnits="userSpaceOnUse">
<stop stop-color="#4C7BEE"/>
<stop offset="1" stop-color="#3B66D0"/>
</linearGradient>
<linearGradient id="paint1_linear_1_109" x1="15.1856" y1="20.459" x2="15.1856" y2="36.0002" gradientUnits="userSpaceOnUse">
<stop stop-color="#4C7BEE"/>
<stop offset="1" stop-color="#3B66D0"/>
</linearGradient>
</defs>
</svg>
