<svg width="33" height="34" viewBox="0 0 33 34" fill="none" xmlns="http://www.w3.org/2000/svg">
<path d="M6.58486 23.7527L4.19634 21.3689C4.00127 21.1745 3.71781 21.0984 3.45162 21.1701C3.18542 21.2411 2.97747 21.4483 2.90635 21.7142L0.025899 32.44C-0.0444502 32.7054 0.0310512 32.9887 0.225607 33.1831C0.420677 33.3775 0.704137 33.4528 0.970073 33.3824L11.7196 30.5082C11.9858 30.4373 12.1937 30.2295 12.2648 29.9641C12.2824 29.8981 12.2911 29.8315 12.2911 29.7654C12.2911 29.564 12.212 29.3673 12.0657 29.221L9.67687 26.8372L6.58486 23.7527Z" fill="url(#paint0_linear_1130_2)"/>
<path d="M32.9996 16.2356C32.9996 25.2039 25.7142 32.4745 16.7268 32.4745C7.73909 32.4745 0.453186 25.2042 0.453186 16.2356C0.453186 7.26978 7.73884 0 16.7268 0C25.7142 0.000257128 32.9996 7.26978 32.9996 16.2356Z" fill="url(#paint1_linear_1130_2)"/>
<path d="M17.1158 25.4199C15.956 25.4199 15.0157 24.4816 15.0157 23.3238V14.7696C15.0157 13.6123 15.956 12.6748 17.1158 12.6748C18.276 12.6748 19.2163 13.6123 19.2163 14.7696V23.3238C19.2163 24.4816 18.276 25.4199 17.1158 25.4199Z" fill="white"/>
<path d="M17.1018 10.3195C18.3014 10.3195 19.2739 9.34918 19.2739 8.1522C19.2739 6.95521 18.3014 5.98486 17.1018 5.98486C15.9022 5.98486 14.9297 6.95521 14.9297 8.1522C14.9297 9.34918 15.9022 10.3195 17.1018 10.3195Z" fill="#14E0B8"/>
<defs>
<linearGradient id="paint0_linear_1130_2" x1="6.1456" y1="21.1436" x2="6.1456" y2="33.4083" gradientUnits="userSpaceOnUse">
<stop stop-color="#0B51FF"/>
<stop offset="1" stop-color="#4370DE"/>
</linearGradient>
<linearGradient id="paint1_linear_1130_2" x1="16.7264" y1="0" x2="16.7264" y2="32.4745" gradientUnits="userSpaceOnUse">
<stop stop-color="#4E7DF1"/>
<stop offset="1" stop-color="#3660C8"/>
</linearGradient>
</defs>
</svg>
